<svg width="312" height="101" viewBox="0 0 312 101" fill="none" xmlns="http://www.w3.org/2000/svg">
<mask id="path-1-outside-1_74_24" maskUnits="userSpaceOnUse" x="59" y="22" width="252" height="47" fill="black">
<rect fill="white" x="59" y="22" width="252" height="47"/>
<path d="M90.624 38.136C90.624 40.056 90.112 41.72 89.088 43.128C88.1067 44.536 86.6133 45.6667 84.608 46.52C87.0827 47.3307 88.9387 48.5467 90.176 50.168C91.4133 51.7893 92.032 53.7093 92.032 55.928C92.032 59.9813 90.56 62.9893 87.616 64.952C84.672 66.9147 80.4053 67.896 74.816 67.896C74.0053 67.896 73.1307 67.8747 72.192 67.832C71.296 67.7893 70.3787 67.704 69.44 67.576C68.5013 67.4907 67.5627 67.3413 66.624 67.128C65.6853 66.9573 64.8107 66.744 64 66.488C61.952 65.8053 60.928 64.5467 60.928 62.712V31.416C60.928 30.6053 61.1413 29.9867 61.568 29.56C61.9947 29.1333 62.592 28.792 63.36 28.536C64.8107 28.0667 66.496 27.7467 68.416 27.576C70.336 27.3627 72.3413 27.256 74.432 27.256C79.5947 27.256 83.584 28.152 86.4 29.944C89.216 31.6933 90.624 34.424 90.624 38.136ZM83.584 55.608C83.584 53.9013 82.9653 52.5573 81.728 51.576C80.5333 50.5947 78.784 50.104 76.48 50.104H68.992V60.792C69.8027 61.0053 70.7627 61.1547 71.872 61.24C73.024 61.3253 74.1547 61.368 75.264 61.368C77.8667 61.368 79.8933 60.92 81.344 60.024C82.8373 59.0853 83.584 57.6133 83.584 55.608ZM68.992 44.024H75.456C77.76 44.024 79.4667 43.5547 80.576 42.616C81.728 41.6773 82.304 40.376 82.304 38.712C82.304 35.3413 79.7013 33.656 74.496 33.656C73.4293 33.656 72.4053 33.6987 71.424 33.784C70.4853 33.8693 69.6747 33.976 68.992 34.104V44.024ZM99.352 36.92C99.6933 36.8347 100.184 36.728 100.824 36.6C101.507 36.472 102.232 36.408 103 36.408C104.536 36.408 105.645 36.6853 106.328 37.24C107.053 37.7947 107.416 38.776 107.416 40.184V66.936C107.075 67.0213 106.563 67.128 105.88 67.256C105.24 67.384 104.536 67.448 103.768 67.448C102.232 67.448 101.101 67.1707 100.376 66.616C99.6933 66.0613 99.352 65.08 99.352 63.672V36.92ZM98.712 27.64C98.712 26.4027 99.1387 25.3573 99.992 24.504C100.888 23.608 102.019 23.16 103.384 23.16C104.749 23.16 105.859 23.608 106.712 24.504C107.565 25.3573 107.992 26.4027 107.992 27.64C107.992 28.92 107.565 30.008 106.712 30.904C105.859 31.7573 104.749 32.184 103.384 32.184C102.019 32.184 100.888 31.7573 99.992 30.904C99.1387 30.008 98.712 28.92 98.712 27.64ZM123.91 57.592C123.91 58.9573 124.315 59.9387 125.126 60.536C125.979 61.1333 127.153 61.432 128.646 61.432C129.371 61.432 130.097 61.3467 130.822 61.176C131.59 61.0053 132.273 60.792 132.87 60.536C133.211 60.8773 133.489 61.304 133.702 61.816C133.958 62.2853 134.086 62.84 134.086 63.48C134.086 64.76 133.51 65.8267 132.358 66.68C131.206 67.4907 129.35 67.896 126.79 67.896C123.419 67.896 120.753 67.1493 118.79 65.656C116.87 64.12 115.91 61.6027 115.91 58.104V28.728C116.251 28.6427 116.742 28.536 117.382 28.408C118.065 28.28 118.79 28.216 119.558 28.216C121.051 28.216 122.139 28.4933 122.822 29.048C123.547 29.6027 123.91 30.584 123.91 31.992V37.304H133.318C133.531 37.6453 133.723 38.0933 133.894 38.648C134.065 39.2027 134.15 39.8 134.15 40.44C134.15 41.5493 133.894 42.36 133.382 42.872C132.87 43.384 132.187 43.64 131.334 43.64H123.91V57.592ZM146.437 55.48C147.034 57.656 148.143 59.2347 149.765 60.216C151.386 61.1973 153.391 61.688 155.781 61.688C157.573 61.688 159.215 61.432 160.709 60.92C162.245 60.3653 163.482 59.7893 164.421 59.192C165.018 59.5333 165.509 60.0027 165.893 60.6C166.277 61.1973 166.469 61.8373 166.469 62.52C166.469 63.3733 166.17 64.1413 165.573 64.824C165.018 65.464 164.229 66.0187 163.205 66.488C162.223 66.9573 161.05 67.32 159.685 67.576C158.319 67.832 156.847 67.96 155.269 67.96C152.751 67.96 150.447 67.6187 148.357 66.936C146.309 66.2533 144.538 65.2293 143.045 63.864C141.594 62.456 140.442 60.728 139.589 58.68C138.778 56.632 138.373 54.2427 138.373 51.512C138.373 48.8667 138.778 46.5627 139.589 44.6C140.399 42.6373 141.487 40.9947 142.853 39.672C144.261 38.3493 145.882 37.368 147.717 36.728C149.551 36.088 151.493 35.768 153.541 35.768C155.631 35.768 157.551 36.1093 159.301 36.792C161.05 37.432 162.543 38.3493 163.781 39.544C165.018 40.696 165.978 42.104 166.661 43.768C167.386 45.3893 167.749 47.16 167.749 49.08C167.749 50.2747 167.429 51.1707 166.789 51.768C166.191 52.3653 165.338 52.7493 164.229 52.92L146.437 55.48ZM153.541 41.848C151.45 41.848 149.701 42.552 148.293 43.96C146.885 45.3253 146.095 47.288 145.925 49.848L160.133 47.736C159.962 46.1573 159.343 44.792 158.277 43.64C157.21 42.4453 155.631 41.848 153.541 41.848ZM174.232 67C173.677 66.5307 173.229 65.9333 172.888 65.208C172.546 64.4827 172.376 63.672 172.376 62.776C172.376 61.9227 172.568 61.0907 172.952 60.28C173.378 59.4693 173.89 58.68 174.488 57.912L192.408 34.936H173.784C173.57 34.552 173.357 34.0827 173.144 33.528C172.973 32.9733 172.888 32.3333 172.888 31.608C172.888 30.4133 173.144 29.5173 173.656 28.92C174.21 28.3227 174.978 28.024 175.96 28.024H200.472C201.837 29.176 202.52 30.6267 202.52 32.376C202.52 33.2293 202.328 34.04 201.944 34.808C201.602 35.576 201.133 36.344 200.536 37.112L182.552 60.152H202.007C202.221 60.536 202.434 61.0053 202.648 61.56C202.861 62.1147 202.968 62.7547 202.968 63.48C202.968 64.6747 202.69 65.5707 202.136 66.168C201.624 66.7227 200.898 67 199.96 67H174.232ZM238.358 51.832C238.358 54.3067 237.974 56.5467 237.206 58.552C236.48 60.5147 235.435 62.2 234.07 63.608C232.704 65.016 231.062 66.104 229.142 66.872C227.222 67.5973 225.067 67.96 222.678 67.96C220.288 67.96 218.134 67.5973 216.214 66.872C214.294 66.104 212.651 65.0373 211.286 63.672C209.92 62.264 208.854 60.5787 208.086 58.616C207.36 56.6107 206.998 54.3493 206.998 51.832C206.998 49.3573 207.36 47.1387 208.086 45.176C208.854 43.1707 209.92 41.4853 211.286 40.12C212.694 38.712 214.358 37.6453 216.278 36.92C218.198 36.152 220.331 35.768 222.678 35.768C225.024 35.768 227.158 36.152 229.078 36.92C230.998 37.6453 232.64 38.712 234.006 40.12C235.414 41.528 236.48 43.2347 237.206 45.24C237.974 47.2027 238.358 49.4 238.358 51.832ZM222.678 42.168C220.374 42.168 218.56 43.0213 217.238 44.728C215.915 46.392 215.254 48.76 215.254 51.832C215.254 54.9467 215.894 57.336 217.174 59C218.496 60.664 220.331 61.496 222.678 61.496C225.024 61.496 226.838 60.664 228.118 59C229.44 57.2933 230.102 54.904 230.102 51.832C230.102 48.76 229.44 46.392 228.118 44.728C226.795 43.0213 224.982 42.168 222.678 42.168ZM265.066 47.48C265.066 45.6453 264.532 44.3013 263.466 43.448C262.442 42.5947 261.034 42.168 259.242 42.168C258.004 42.168 256.852 42.3173 255.786 42.616C254.762 42.9147 253.866 43.2987 253.098 43.768V66.936C252.714 67.0213 252.202 67.128 251.562 67.256C250.922 67.384 250.196 67.448 249.385 67.448C247.892 67.448 246.783 67.1707 246.058 66.616C245.332 66.0613 244.97 65.08 244.97 63.672V43.128C244.97 42.104 245.183 41.272 245.61 40.632C246.036 39.992 246.698 39.3733 247.594 38.776C248.831 37.9227 250.474 37.2187 252.522 36.664C254.57 36.0667 256.831 35.768 259.306 35.768C263.7 35.768 267.092 36.7493 269.482 38.712C271.914 40.632 273.13 43.4693 273.13 47.224V66.936C272.788 67.0213 272.276 67.128 271.594 67.256C270.954 67.384 270.25 67.448 269.482 67.448C267.946 67.448 266.815 67.1707 266.09 66.616C265.407 66.0613 265.066 65.08 265.066 63.672V47.48ZM287.874 55.48C288.471 57.656 289.581 59.2347 291.202 60.216C292.823 61.1973 294.829 61.688 297.218 61.688C299.01 61.688 300.653 61.432 302.146 60.92C303.682 60.3653 304.919 59.7893 305.858 59.192C306.455 59.5333 306.946 60.0027 307.33 60.6C307.714 61.1973 307.906 61.8373 307.906 62.52C307.906 63.3733 307.607 64.1413 307.01 64.824C306.455 65.464 305.666 66.0187 304.642 66.488C303.661 66.9573 302.487 67.32 301.122 67.576C299.757 67.832 298.285 67.96 296.706 67.96C294.189 67.96 291.885 67.6187 289.794 66.936C287.746 66.2533 285.975 65.2293 284.482 63.864C283.031 62.456 281.879 60.728 281.026 58.68C280.215 56.632 279.81 54.2427 279.81 51.512C279.81 48.8667 280.215 46.5627 281.026 44.6C281.837 42.6373 282.925 40.9947 284.29 39.672C285.698 38.3493 287.319 37.368 289.154 36.728C290.989 36.088 292.93 35.768 294.978 35.768C297.069 35.768 298.989 36.1093 300.738 36.792C302.487 37.432 303.981 38.3493 305.218 39.544C306.455 40.696 307.415 42.104 308.098 43.768C308.823 45.3893 309.186 47.16 309.186 49.08C309.186 50.2747 308.866 51.1707 308.226 51.768C307.629 52.3653 306.775 52.7493 305.666 52.92L287.874 55.48ZM294.978 41.848C292.887 41.848 291.138 42.552 289.73 43.96C288.322 45.3253 287.533 47.288 287.362 49.848L301.57 47.736C301.399 46.1573 300.781 44.792 299.714 43.64C298.647 42.4453 297.069 41.848 294.978 41.848Z"/>
</mask>
<path d="M90.624 38.136C90.624 40.056 90.112 41.72 89.088 43.128C88.1067 44.536 86.6133 45.6667 84.608 46.52C87.0827 47.3307 88.9387 48.5467 90.176 50.168C91.4133 51.7893 92.032 53.7093 92.032 55.928C92.032 59.9813 90.56 62.9893 87.616 64.952C84.672 66.9147 80.4053 67.896 74.816 67.896C74.0053 67.896 73.1307 67.8747 72.192 67.832C71.296 67.7893 70.3787 67.704 69.44 67.576C68.5013 67.4907 67.5627 67.3413 66.624 67.128C65.6853 66.9573 64.8107 66.744 64 66.488C61.952 65.8053 60.928 64.5467 60.928 62.712V31.416C60.928 30.6053 61.1413 29.9867 61.568 29.56C61.9947 29.1333 62.592 28.792 63.36 28.536C64.8107 28.0667 66.496 27.7467 68.416 27.576C70.336 27.3627 72.3413 27.256 74.432 27.256C79.5947 27.256 83.584 28.152 86.4 29.944C89.216 31.6933 90.624 34.424 90.624 38.136ZM83.584 55.608C83.584 53.9013 82.9653 52.5573 81.728 51.576C80.5333 50.5947 78.784 50.104 76.48 50.104H68.992V60.792C69.8027 61.0053 70.7627 61.1547 71.872 61.24C73.024 61.3253 74.1547 61.368 75.264 61.368C77.8667 61.368 79.8933 60.92 81.344 60.024C82.8373 59.0853 83.584 57.6133 83.584 55.608ZM68.992 44.024H75.456C77.76 44.024 79.4667 43.5547 80.576 42.616C81.728 41.6773 82.304 40.376 82.304 38.712C82.304 35.3413 79.7013 33.656 74.496 33.656C73.4293 33.656 72.4053 33.6987 71.424 33.784C70.4853 33.8693 69.6747 33.976 68.992 34.104V44.024ZM99.352 36.92C99.6933 36.8347 100.184 36.728 100.824 36.6C101.507 36.472 102.232 36.408 103 36.408C104.536 36.408 105.645 36.6853 106.328 37.24C107.053 37.7947 107.416 38.776 107.416 40.184V66.936C107.075 67.0213 106.563 67.128 105.88 67.256C105.24 67.384 104.536 67.448 103.768 67.448C102.232 67.448 101.101 67.1707 100.376 66.616C99.6933 66.0613 99.352 65.08 99.352 63.672V36.92ZM98.712 27.64C98.712 26.4027 99.1387 25.3573 99.992 24.504C100.888 23.608 102.019 23.16 103.384 23.16C104.749 23.16 105.859 23.608 106.712 24.504C107.565 25.3573 107.992 26.4027 107.992 27.64C107.992 28.92 107.565 30.008 106.712 30.904C105.859 31.7573 104.749 32.184 103.384 32.184C102.019 32.184 100.888 31.7573 99.992 30.904C99.1387 30.008 98.712 28.92 98.712 27.64ZM123.91 57.592C123.91 58.9573 124.315 59.9387 125.126 60.536C125.979 61.1333 127.153 61.432 128.646 61.432C129.371 61.432 130.097 61.3467 130.822 61.176C131.59 61.0053 132.273 60.792 132.87 60.536C133.211 60.8773 133.489 61.304 133.702 61.816C133.958 62.2853 134.086 62.84 134.086 63.48C134.086 64.76 133.51 65.8267 132.358 66.68C131.206 67.4907 129.35 67.896 126.79 67.896C123.419 67.896 120.753 67.1493 118.79 65.656C116.87 64.12 115.91 61.6027 115.91 58.104V28.728C116.251 28.6427 116.742 28.536 117.382 28.408C118.065 28.28 118.79 28.216 119.558 28.216C121.051 28.216 122.139 28.4933 122.822 29.048C123.547 29.6027 123.91 30.584 123.91 31.992V37.304H133.318C133.531 37.6453 133.723 38.0933 133.894 38.648C134.065 39.2027 134.15 39.8 134.15 40.44C134.15 41.5493 133.894 42.36 133.382 42.872C132.87 43.384 132.187 43.64 131.334 43.64H123.91V57.592ZM146.437 55.48C147.034 57.656 148.143 59.2347 149.765 60.216C151.386 61.1973 153.391 61.688 155.781 61.688C157.573 61.688 159.215 61.432 160.709 60.92C162.245 60.3653 163.482 59.7893 164.421 59.192C165.018 59.5333 165.509 60.0027 165.893 60.6C166.277 61.1973 166.469 61.8373 166.469 62.52C166.469 63.3733 166.17 64.1413 165.573 64.824C165.018 65.464 164.229 66.0187 163.205 66.488C162.223 66.9573 161.05 67.32 159.685 67.576C158.319 67.832 156.847 67.96 155.269 67.96C152.751 67.96 150.447 67.6187 148.357 66.936C146.309 66.2533 144.538 65.2293 143.045 63.864C141.594 62.456 140.442 60.728 139.589 58.68C138.778 56.632 138.373 54.2427 138.373 51.512C138.373 48.8667 138.778 46.5627 139.589 44.6C140.399 42.6373 141.487 40.9947 142.853 39.672C144.261 38.3493 145.882 37.368 147.717 36.728C149.551 36.088 151.493 35.768 153.541 35.768C155.631 35.768 157.551 36.1093 159.301 36.792C161.05 37.432 162.543 38.3493 163.781 39.544C165.018 40.696 165.978 42.104 166.661 43.768C167.386 45.3893 167.749 47.16 167.749 49.08C167.749 50.2747 167.429 51.1707 166.789 51.768C166.191 52.3653 165.338 52.7493 164.229 52.92L146.437 55.48ZM153.541 41.848C151.45 41.848 149.701 42.552 148.293 43.96C146.885 45.3253 146.095 47.288 145.925 49.848L160.133 47.736C159.962 46.1573 159.343 44.792 158.277 43.64C157.21 42.4453 155.631 41.848 153.541 41.848ZM174.232 67C173.677 66.5307 173.229 65.9333 172.888 65.208C172.546 64.4827 172.376 63.672 172.376 62.776C172.376 61.9227 172.568 61.0907 172.952 60.28C173.378 59.4693 173.89 58.68 174.488 57.912L192.408 34.936H173.784C173.57 34.552 173.357 34.0827 173.144 33.528C172.973 32.9733 172.888 32.3333 172.888 31.608C172.888 30.4133 173.144 29.5173 173.656 28.92C174.21 28.3227 174.978 28.024 175.96 28.024H200.472C201.837 29.176 202.52 30.6267 202.52 32.376C202.52 33.2293 202.328 34.04 201.944 34.808C201.602 35.576 201.133 36.344 200.536 37.112L182.552 60.152H202.007C202.221 60.536 202.434 61.0053 202.648 61.56C202.861 62.1147 202.968 62.7547 202.968 63.48C202.968 64.6747 202.69 65.5707 202.136 66.168C201.624 66.7227 200.898 67 199.96 67H174.232ZM238.358 51.832C238.358 54.3067 237.974 56.5467 237.206 58.552C236.48 60.5147 235.435 62.2 234.07 63.608C232.704 65.016 231.062 66.104 229.142 66.872C227.222 67.5973 225.067 67.96 222.678 67.96C220.288 67.96 218.134 67.5973 216.214 66.872C214.294 66.104 212.651 65.0373 211.286 63.672C209.92 62.264 208.854 60.5787 208.086 58.616C207.36 56.6107 206.998 54.3493 206.998 51.832C206.998 49.3573 207.36 47.1387 208.086 45.176C208.854 43.1707 209.92 41.4853 211.286 40.12C212.694 38.712 214.358 37.6453 216.278 36.92C218.198 36.152 220.331 35.768 222.678 35.768C225.024 35.768 227.158 36.152 229.078 36.92C230.998 37.6453 232.64 38.712 234.006 40.12C235.414 41.528 236.48 43.2347 237.206 45.24C237.974 47.2027 238.358 49.4 238.358 51.832ZM222.678 42.168C220.374 42.168 218.56 43.0213 217.238 44.728C215.915 46.392 215.254 48.76 215.254 51.832C215.254 54.9467 215.894 57.336 217.174 59C218.496 60.664 220.331 61.496 222.678 61.496C225.024 61.496 226.838 60.664 228.118 59C229.44 57.2933 230.102 54.904 230.102 51.832C230.102 48.76 229.44 46.392 228.118 44.728C226.795 43.0213 224.982 42.168 222.678 42.168ZM265.066 47.48C265.066 45.6453 264.532 44.3013 263.466 43.448C262.442 42.5947 261.034 42.168 259.242 42.168C258.004 42.168 256.852 42.3173 255.786 42.616C254.762 42.9147 253.866 43.2987 253.098 43.768V66.936C252.714 67.0213 252.202 67.128 251.562 67.256C250.922 67.384 250.196 67.448 249.385 67.448C247.892 67.448 246.783 67.1707 246.058 66.616C245.332 66.0613 244.97 65.08 244.97 63.672V43.128C244.97 42.104 245.183 41.272 245.61 40.632C246.036 39.992 246.698 39.3733 247.594 38.776C248.831 37.9227 250.474 37.2187 252.522 36.664C254.57 36.0667 256.831 35.768 259.306 35.768C263.7 35.768 267.092 36.7493 269.482 38.712C271.914 40.632 273.13 43.4693 273.13 47.224V66.936C272.788 67.0213 272.276 67.128 271.594 67.256C270.954 67.384 270.25 67.448 269.482 67.448C267.946 67.448 266.815 67.1707 266.09 66.616C265.407 66.0613 265.066 65.08 265.066 63.672V47.48ZM287.874 55.48C288.471 57.656 289.581 59.2347 291.202 60.216C292.823 61.1973 294.829 61.688 297.218 61.688C299.01 61.688 300.653 61.432 302.146 60.92C303.682 60.3653 304.919 59.7893 305.858 59.192C306.455 59.5333 306.946 60.0027 307.33 60.6C307.714 61.1973 307.906 61.8373 307.906 62.52C307.906 63.3733 307.607 64.1413 307.01 64.824C306.455 65.464 305.666 66.0187 304.642 66.488C303.661 66.9573 302.487 67.32 301.122 67.576C299.757 67.832 298.285 67.96 296.706 67.96C294.189 67.96 291.885 67.6187 289.794 66.936C287.746 66.2533 285.975 65.2293 284.482 63.864C283.031 62.456 281.879 60.728 281.026 58.68C280.215 56.632 279.81 54.2427 279.81 51.512C279.81 48.8667 280.215 46.5627 281.026 44.6C281.837 42.6373 282.925 40.9947 284.29 39.672C285.698 38.3493 287.319 37.368 289.154 36.728C290.989 36.088 292.93 35.768 294.978 35.768C297.069 35.768 298.989 36.1093 300.738 36.792C302.487 37.432 303.981 38.3493 305.218 39.544C306.455 40.696 307.415 42.104 308.098 43.768C308.823 45.3893 309.186 47.16 309.186 49.08C309.186 50.2747 308.866 51.1707 308.226 51.768C307.629 52.3653 306.775 52.7493 305.666 52.92L287.874 55.48ZM294.978 41.848C292.887 41.848 291.138 42.552 289.73 43.96C288.322 45.3253 287.533 47.288 287.362 49.848L301.57 47.736C301.399 46.1573 300.781 44.792 299.714 43.64C298.647 42.4453 297.069 41.848 294.978 41.848Z" fill="#016630"/>
<path d="M89.088 43.128L88.2793 42.5398L88.2734 42.548L88.2676 42.5562L89.088 43.128ZM84.608 46.52L84.2164 45.5998L81.7677 46.6419L84.2967 47.4703L84.608 46.52ZM90.176 50.168L90.971 49.5613L90.971 49.5613L90.176 50.168ZM87.616 64.952L87.0613 64.1199L87.616 64.952ZM72.192 67.832L72.1444 68.8309L72.1466 68.831L72.192 67.832ZM69.44 67.576L69.5751 66.5852L69.5529 66.5821L69.5305 66.5801L69.44 67.576ZM66.624 67.128L66.8456 66.1529L66.8243 66.148L66.8029 66.1441L66.624 67.128ZM64 66.488L63.6838 67.4367L63.6913 67.4392L63.6989 67.4416L64 66.488ZM63.36 28.536L63.0522 27.5845L63.0438 27.5873L63.36 28.536ZM68.416 27.576L68.5045 28.5721L68.5155 28.5711L68.5264 28.5699L68.416 27.576ZM86.4 29.944L85.8631 30.7877L85.8723 30.7934L86.4 29.944ZM81.728 51.576L81.0933 52.3487L81.0999 52.3542L81.1066 52.3595L81.728 51.576ZM68.992 50.104V49.104H67.992V50.104H68.992ZM68.992 60.792H67.992V61.5629L68.7375 61.7591L68.992 60.792ZM71.872 61.24L71.7953 62.2371L71.7981 62.2373L71.872 61.24ZM81.344 60.024L81.8695 60.8748L81.8762 60.8706L81.344 60.024ZM68.992 44.024H67.992V45.024H68.992V44.024ZM80.576 42.616L79.9443 41.8408L79.9371 41.8466L79.9301 41.8526L80.576 42.616ZM71.424 33.784L71.3374 32.7877L71.3335 32.7881L71.424 33.784ZM68.992 34.104L68.8077 33.1211L67.992 33.2741V34.104H68.992ZM89.624 38.136C89.624 39.8675 89.1662 41.3203 88.2793 42.5398L89.8967 43.7162C91.0578 42.1197 91.624 40.2445 91.624 38.136H89.624ZM88.2676 42.5562C87.4191 43.7736 86.0951 44.8004 84.2164 45.5998L84.9996 47.4402C87.1315 46.5329 88.7942 45.2984 89.9084 43.6998L88.2676 42.5562ZM84.2967 47.4703C86.6322 48.2354 88.2965 49.3535 89.3811 50.7747L90.971 49.5613C89.5809 47.7398 87.5331 46.4259 84.9193 45.5697L84.2967 47.4703ZM89.3811 50.7747C90.4735 52.2062 91.032 53.9081 91.032 55.928H93.032C93.032 53.5105 92.3532 51.3725 90.971 49.5613L89.3811 50.7747ZM91.032 55.928C91.032 59.7037 89.683 62.3722 87.0613 64.1199L88.1707 65.7841C91.437 63.6065 93.032 60.2589 93.032 55.928H91.032ZM87.0613 64.1199C84.3514 65.9265 80.3131 66.896 74.816 66.896V68.896C80.4976 68.896 84.9926 67.9028 88.1707 65.7841L87.0613 64.1199ZM74.816 66.896C74.0226 66.896 73.1633 66.8751 72.2374 66.833L72.1466 68.831C73.0981 68.8742 73.988 68.896 74.816 68.896V66.896ZM72.2396 66.8331C71.3744 66.7919 70.4863 66.7094 69.5751 66.5852L69.3049 68.5668C70.271 68.6986 71.2176 68.7867 72.1444 68.8309L72.2396 66.8331ZM69.5305 66.5801C68.6369 66.4989 67.742 66.3566 66.8456 66.1529L66.4024 68.1031C67.3833 68.3261 68.3658 68.4825 69.3495 68.5719L69.5305 66.5801ZM66.8029 66.1441C65.9006 65.9801 65.0672 65.7763 64.3011 65.5344L63.6989 67.4416C64.5541 67.7117 65.47 67.9346 66.4451 68.1119L66.8029 66.1441ZM64.3162 65.5393C63.4143 65.2387 62.8303 64.8416 62.4717 64.4009C62.1237 63.9731 61.928 63.4312 61.928 62.712H59.928C59.928 63.8274 60.2443 64.8322 60.9203 65.6631C61.5857 66.481 62.5377 67.0547 63.6838 67.4367L64.3162 65.5393ZM61.928 62.712V31.416H59.928V62.712H61.928ZM61.928 31.416C61.928 30.7767 62.0933 30.4489 62.2751 30.2671L60.8609 28.8529C60.1894 29.5244 59.928 30.434 59.928 31.416H61.928ZM62.2751 30.2671C62.5611 29.9811 63.0075 29.7076 63.6762 29.4847L63.0438 27.5873C62.1765 27.8764 61.4282 28.2855 60.8609 28.8529L62.2751 30.2671ZM63.6678 29.4874C65.0315 29.0463 66.6405 28.7378 68.5045 28.5721L68.3275 26.5799C66.3515 26.7556 64.5898 27.0871 63.0522 27.5846L63.6678 29.4874ZM68.5264 28.5699C70.4069 28.3609 72.3753 28.256 74.432 28.256V26.256C72.3074 26.256 70.2651 26.3644 68.3056 26.5821L68.5264 28.5699ZM74.432 28.256C79.5004 28.256 83.2728 29.1393 85.8631 30.7877L86.9369 29.1003C83.8952 27.1647 79.6889 26.256 74.432 26.256V28.256ZM85.8723 30.7934C88.3551 32.3358 89.624 34.7205 89.624 38.136H91.624C91.624 34.1275 90.0769 31.0509 86.9277 29.0946L85.8723 30.7934ZM84.584 55.608C84.584 53.6244 83.8472 51.9804 82.3494 50.7925L81.1066 52.3595C82.0835 53.1342 82.584 54.1783 82.584 55.608H84.584ZM82.3627 50.8033C80.9198 49.618 78.9061 49.104 76.48 49.104V51.104C78.6619 51.104 80.1469 51.5713 81.0933 52.3487L82.3627 50.8033ZM76.48 49.104H68.992V51.104H76.48V49.104ZM67.992 50.104V60.792H69.992V50.104H67.992ZM68.7375 61.7591C69.6217 61.9918 70.6441 62.1485 71.7953 62.2371L71.9487 60.2429C70.8812 60.1608 69.9836 60.0189 69.2465 59.8249L68.7375 61.7591ZM71.7981 62.2373C72.9737 62.3243 74.129 62.368 75.264 62.368V60.368C74.1803 60.368 73.0743 60.3263 71.9459 60.2427L71.7981 62.2373ZM75.264 62.368C77.9619 62.368 80.1985 61.9069 81.8695 60.8748L80.8185 59.1732C79.5882 59.9331 77.7714 60.368 75.264 60.368V62.368ZM81.8762 60.8706C83.7048 59.7212 84.584 57.9016 84.584 55.608H82.584C82.584 57.3251 81.9699 58.4495 80.8118 59.1774L81.8762 60.8706ZM68.992 45.024H75.456V43.024H68.992V45.024ZM75.456 45.024C77.8659 45.024 79.8526 44.5381 81.2219 43.3794L79.9301 41.8526C79.0808 42.5712 77.6541 43.024 75.456 43.024V45.024ZM81.2077 43.3912C82.6226 42.2383 83.304 40.6359 83.304 38.712H81.304C81.304 40.1161 80.8334 41.1163 79.9443 41.8408L81.2077 43.3912ZM83.304 38.712C83.304 36.7227 82.5098 35.1259 80.8955 34.0806C79.3562 33.0838 77.1746 32.656 74.496 32.656V34.656C77.0227 34.656 78.7451 35.0708 79.8085 35.7594C80.7969 36.3994 81.304 37.3306 81.304 38.712H83.304ZM74.496 32.656C73.4028 32.656 72.3498 32.6997 71.3374 32.7878L71.5106 34.7802C72.4609 34.6976 73.4559 34.656 74.496 34.656V32.656ZM71.3335 32.7881C70.3736 32.8754 69.5301 32.9857 68.8077 33.1211L69.1763 35.0869C69.8192 34.9663 70.597 34.8633 71.5145 34.7799L71.3335 32.7881ZM67.992 34.104V44.024H69.992V34.104H67.992ZM99.352 36.92L99.1095 35.9499L98.352 36.1392V36.92H99.352ZM100.824 36.6L100.64 35.6171L100.628 35.6194L100.824 36.6ZM106.328 37.24L105.697 38.0161L105.709 38.0254L105.721 38.0344L106.328 37.24ZM107.416 66.936L107.659 67.9061L108.416 67.7168V66.936H107.416ZM105.88 67.256L105.696 66.2731L105.684 66.2754L105.88 67.256ZM100.376 66.616L99.7454 67.3921L99.7568 67.4014L99.7686 67.4104L100.376 66.616ZM99.992 24.504L100.699 25.2111L100.699 25.2111L99.992 24.504ZM106.712 24.504L105.988 25.1937L105.996 25.2025L106.005 25.2111L106.712 24.504ZM106.712 30.904L107.419 31.6111L107.428 31.6025L107.436 31.5937L106.712 30.904ZM99.992 30.904L99.2679 31.5937L99.2847 31.6113L99.3023 31.6281L99.992 30.904ZM99.5945 37.8901C99.9126 37.8106 100.385 37.7076 101.02 37.5806L100.628 35.6194C99.983 35.7484 99.474 35.8587 99.1095 35.9499L99.5945 37.8901ZM101.008 37.5829C101.624 37.4674 102.287 37.408 103 37.408V35.408C102.177 35.408 101.389 35.4766 100.64 35.6171L101.008 37.5829ZM103 37.408C104.461 37.408 105.284 37.6803 105.697 38.0161L106.959 36.4639C106.007 35.6903 104.611 35.408 103 35.408V37.408ZM105.721 38.0344C106.088 38.3152 106.416 38.9151 106.416 40.184H108.416C108.416 38.6369 108.019 37.2741 106.935 36.4456L105.721 38.0344ZM106.416 40.184V66.936H108.416V40.184H106.416ZM107.173 65.9659C106.862 66.0437 106.374 66.146 105.696 66.2731L106.064 68.2389C106.752 68.11 107.287 67.9989 107.659 67.9061L107.173 65.9659ZM105.684 66.2754C105.119 66.3885 104.481 66.448 103.768 66.448V68.448C104.591 68.448 105.361 68.3795 106.076 68.2366L105.684 66.2754ZM103.768 66.448C102.315 66.448 101.451 66.1789 100.983 65.8216L99.7686 67.4104C100.752 68.1624 102.149 68.448 103.768 68.448V66.448ZM101.007 65.8399C100.668 65.5652 100.352 64.9588 100.352 63.672H98.352C98.352 65.2012 98.7182 66.5575 99.7454 67.3921L101.007 65.8399ZM100.352 63.672V36.92H98.352V63.672H100.352ZM99.712 27.64C99.712 26.6604 100.039 25.8717 100.699 25.2111L99.2849 23.7969C98.2388 24.843 97.712 26.145 97.712 27.64H99.712ZM100.699 25.2111C101.392 24.5181 102.261 24.16 103.384 24.16V22.16C101.776 22.16 100.384 22.6979 99.2849 23.7969L100.699 25.2111ZM103.384 24.16C104.507 24.16 105.344 24.5174 105.988 25.1937L107.436 23.8143C106.373 22.6986 104.992 22.16 103.384 22.16V24.16ZM106.005 25.2111C106.665 25.8717 106.992 26.6604 106.992 27.64H108.992C108.992 26.145 108.465 24.843 107.419 23.7969L106.005 25.2111ZM106.992 27.64C106.992 28.673 106.657 29.5113 105.988 30.2143L107.436 31.5937C108.473 30.5047 108.992 29.167 108.992 27.64H106.992ZM106.005 30.1969C105.364 30.8374 104.522 31.184 103.384 31.184V33.184C104.977 33.184 106.353 32.6772 107.419 31.6111L106.005 30.1969ZM103.384 31.184C102.247 31.184 101.372 30.8371 100.682 30.1799L99.3023 31.6281C100.404 32.6776 101.791 33.184 103.384 33.184V31.184ZM100.716 30.2143C100.047 29.5113 99.712 28.673 99.712 27.64H97.712C97.712 29.167 98.2308 30.5047 99.2679 31.5937L100.716 30.2143ZM125.126 60.536L124.533 61.3411L124.543 61.3483L124.553 61.3552L125.126 60.536ZM130.822 61.176L130.605 60.1997L130.593 60.2026L130.822 61.176ZM132.87 60.536L133.577 59.8289L133.098 59.3502L132.476 59.6169L132.87 60.536ZM133.702 61.816L132.779 62.2006L132.799 62.2489L132.824 62.2949L133.702 61.816ZM132.358 66.68L132.933 67.4978L132.943 67.4908L132.953 67.4836L132.358 66.68ZM118.79 65.656L118.165 66.4369L118.175 66.4445L118.184 66.4518L118.79 65.656ZM115.91 28.728L115.667 27.7579L114.91 27.9472V28.728H115.91ZM117.382 28.408L117.198 27.4251L117.186 27.4274L117.382 28.408ZM122.822 29.048L122.191 29.8241L122.203 29.8334L122.215 29.8424L122.822 29.048ZM123.91 37.304H122.91V38.304H123.91V37.304ZM133.318 37.304L134.166 36.774L133.872 36.304H133.318V37.304ZM133.382 42.872L134.089 43.5791L134.089 43.5791L133.382 42.872ZM123.91 43.64V42.64H122.91V43.64H123.91ZM122.91 57.592C122.91 59.1528 123.382 60.4929 124.533 61.3411L125.719 59.7309C125.249 59.3845 124.91 58.7619 124.91 57.592H122.91ZM124.553 61.3552C125.632 62.1112 127.033 62.432 128.646 62.432V60.432C127.272 60.432 126.326 60.1555 125.699 59.7168L124.553 61.3552ZM128.646 62.432C129.451 62.432 130.253 62.3373 131.051 62.1494L130.593 60.2026C129.941 60.3561 129.292 60.432 128.646 60.432V62.432ZM131.039 62.1522C131.855 61.9708 132.599 61.7401 133.264 61.4551L132.476 59.6169C131.946 59.8439 131.325 60.0399 130.605 60.1998L131.039 62.1522ZM132.163 61.2431C132.399 61.4794 132.608 61.7914 132.779 62.2006L134.625 61.4314C134.369 60.8166 134.024 60.2753 133.577 59.8289L132.163 61.2431ZM132.824 62.2949C132.986 62.5909 133.086 62.9744 133.086 63.48H135.086C135.086 62.7056 134.93 61.9798 134.58 61.3371L132.824 62.2949ZM133.086 63.48C133.086 64.4018 132.695 65.1857 131.763 65.8764L132.953 67.4836C134.325 66.4677 135.086 65.1182 135.086 63.48H133.086ZM131.783 65.8622C130.888 66.4913 129.29 66.896 126.79 66.896V68.896C129.41 68.896 131.524 68.49 132.933 67.4978L131.783 65.8622ZM126.79 66.896C123.559 66.896 121.13 66.18 119.396 64.8602L118.184 66.4518C120.375 68.1186 123.28 68.896 126.79 68.896V66.896ZM119.415 64.8751C117.82 63.5994 116.91 61.4333 116.91 58.104H114.91C114.91 61.772 115.92 64.6406 118.165 66.4369L119.415 64.8751ZM116.91 58.104V28.728H114.91V58.104H116.91ZM116.153 29.6981C116.471 29.6186 116.943 29.5156 117.578 29.3886L117.186 27.4274C116.541 27.5564 116.032 27.6667 115.667 27.7579L116.153 29.6981ZM117.566 29.3909C118.182 29.2754 118.845 29.216 119.558 29.216V27.216C118.735 27.216 117.947 27.2846 117.198 27.4251L117.566 29.3909ZM119.558 29.216C120.968 29.216 121.774 29.4853 122.191 29.8241L123.453 28.2719C122.504 27.5013 121.135 27.216 119.558 27.216V29.216ZM122.215 29.8424C122.582 30.1232 122.91 30.7231 122.91 31.992H124.91C124.91 30.4449 124.513 29.0821 123.429 28.2536L122.215 29.8424ZM122.91 31.992V37.304H124.91V31.992H122.91ZM123.91 38.304H133.318V36.304H123.91V38.304ZM132.47 37.834C132.622 38.0772 132.783 38.4372 132.938 38.9421L134.85 38.3539C134.664 37.7494 134.441 37.2135 134.166 36.774L132.47 37.834ZM132.938 38.9421C133.077 39.3922 133.15 39.8895 133.15 40.44H135.15C135.15 39.7105 135.053 39.0131 134.85 38.3539L132.938 38.9421ZM133.15 40.44C133.15 41.4224 132.92 41.9196 132.675 42.1649L134.089 43.5791C134.868 42.8004 135.15 41.6763 135.15 40.44H133.15ZM132.675 42.1649C132.384 42.4562 131.973 42.64 131.334 42.64V44.64C132.402 44.64 133.356 44.3118 134.089 43.5791L132.675 42.1649ZM131.334 42.64H123.91V44.64H131.334V42.64ZM122.91 43.64V57.592H124.91V43.64H122.91ZM146.437 55.48L146.294 54.4902L145.172 54.6516L145.472 55.7447L146.437 55.48ZM160.709 60.92L161.033 61.8659L161.041 61.8633L161.048 61.8606L160.709 60.92ZM164.421 59.192L164.917 58.3238L164.393 58.0244L163.884 58.3483L164.421 59.192ZM165.893 60.6L165.051 61.1408L165.051 61.1408L165.893 60.6ZM165.573 64.824L164.82 64.1655L164.817 64.1691L165.573 64.824ZM163.205 66.488L162.788 65.5789L162.78 65.5823L162.773 65.5859L163.205 66.488ZM159.685 67.576L159.869 68.5589L159.685 67.576ZM148.357 66.936L148.04 67.8847L148.046 67.8866L148.357 66.936ZM143.045 63.864L142.348 64.5816L142.359 64.592L142.37 64.602L143.045 63.864ZM139.589 58.68L138.659 59.048L138.662 59.0564L138.665 59.0646L139.589 58.68ZM139.589 44.6L140.513 44.9818L140.513 44.9818L139.589 44.6ZM142.853 39.672L142.168 38.9432L142.162 38.9484L142.157 38.9538L142.853 39.672ZM147.717 36.728L148.046 37.6722L148.046 37.6722L147.717 36.728ZM159.301 36.792L158.937 37.7236L158.947 37.7275L158.957 37.7311L159.301 36.792ZM163.781 39.544L163.086 40.2634L163.092 40.2697L163.099 40.2759L163.781 39.544ZM166.661 43.768L165.735 44.1476L165.741 44.1621L165.748 44.1764L166.661 43.768ZM166.789 51.768L166.106 51.0369L166.094 51.0487L166.081 51.0609L166.789 51.768ZM164.229 52.92L164.371 53.9099L164.381 53.9084L164.229 52.92ZM148.293 43.96L148.989 44.6779L148.994 44.6725L149 44.6671L148.293 43.96ZM145.925 49.848L144.927 49.7815L144.844 51.0196L146.072 50.8371L145.925 49.848ZM160.133 47.736L160.28 48.7251L161.23 48.5838L161.127 47.6285L160.133 47.736ZM158.277 43.64L157.531 44.306L157.537 44.3128L157.543 44.3194L158.277 43.64ZM145.472 55.7447C146.124 58.1175 147.366 59.933 149.247 61.0715L150.282 59.3605C148.921 58.5363 147.944 57.1945 147.401 55.2153L145.472 55.7447ZM149.247 61.0715C151.06 62.1691 153.256 62.688 155.781 62.688V60.688C153.527 60.688 151.712 60.2256 150.282 59.3605L149.247 61.0715ZM155.781 62.688C157.668 62.688 159.422 62.4182 161.033 61.8659L160.384 59.9741C159.008 60.4458 157.477 60.688 155.781 60.688V62.688ZM161.048 61.8606C162.624 61.2914 163.935 60.6861 164.957 60.0357L163.884 58.3483C163.028 58.8926 161.865 59.4393 160.369 59.9794L161.048 61.8606ZM163.924 60.0602C164.377 60.3191 164.751 60.6742 165.051 61.1408L166.734 60.0592C166.266 59.3311 165.658 58.7475 164.917 58.3238L163.924 60.0602ZM165.051 61.1408C165.336 61.5836 165.469 62.037 165.469 62.52H167.469C167.469 61.6376 167.217 60.811 166.734 60.0592L165.051 61.1408ZM165.469 62.52C165.469 63.115 165.269 63.6526 164.82 64.1655L166.325 65.4825C167.071 64.63 167.469 63.6317 167.469 62.52H165.469ZM164.817 64.1691C164.381 64.6717 163.723 65.1504 162.788 65.5789L163.621 67.3971C164.734 66.8869 165.654 66.2563 166.328 65.4789L164.817 64.1691ZM162.773 65.5859C161.888 66.009 160.802 66.349 159.5 66.5931L159.869 68.5589C161.297 68.291 162.558 67.9057 163.636 67.3901L162.773 65.5859ZM159.5 66.5931C158.203 66.8363 156.794 66.96 155.269 66.96V68.96C156.901 68.96 158.435 68.8277 159.869 68.5589L159.5 66.5931ZM155.269 66.96C152.842 66.96 150.644 66.631 148.667 65.9854L148.046 67.8866C150.25 68.6063 152.661 68.96 155.269 68.96V66.96ZM148.673 65.9873C146.749 65.346 145.102 64.3905 143.719 63.126L142.37 64.602C143.973 66.0682 145.868 67.1607 148.04 67.8847L148.673 65.9873ZM143.741 63.1464C142.397 61.8417 141.318 60.2305 140.512 58.2954L138.665 59.0646C139.566 61.2255 140.791 63.0703 142.348 64.5816L143.741 63.1464ZM140.518 58.312C139.764 56.4055 139.373 54.1458 139.373 51.512H137.373C137.373 54.3395 137.792 56.8585 138.659 59.048L140.518 58.312ZM139.373 51.512C139.373 48.9665 139.763 46.7976 140.513 44.9818L138.664 44.2182C137.793 46.3277 137.373 48.7668 137.373 51.512H139.373ZM140.513 44.9818C141.277 43.1309 142.292 41.607 143.548 40.3902L142.157 38.9538C140.682 40.3823 139.521 42.1438 138.664 44.2182L140.513 44.9818ZM143.537 40.4008C144.843 39.1746 146.343 38.2664 148.046 37.6722L147.387 35.7838C145.421 36.4696 143.678 37.524 142.168 38.9432L143.537 40.4008ZM148.046 37.6722C149.769 37.0711 151.599 36.768 153.541 36.768V34.768C151.386 34.768 149.333 35.1049 147.387 35.7838L148.046 37.6722ZM153.541 36.768C155.521 36.768 157.316 37.091 158.937 37.7236L159.664 35.8604C157.786 35.1277 155.741 34.768 153.541 34.768V36.768ZM158.957 37.7311C160.586 38.3272 161.957 39.1735 163.086 40.2634L164.475 38.8246C163.129 37.5252 161.513 36.5368 159.644 35.8529L158.957 37.7311ZM163.099 40.2759C164.224 41.3232 165.104 42.6085 165.735 44.1476L167.586 43.3884C166.852 41.5995 165.812 40.0688 164.462 38.8121L163.099 40.2759ZM165.748 44.1764C166.411 45.6591 166.749 47.2892 166.749 49.08H168.749C168.749 47.0308 168.361 45.1196 167.573 43.3596L165.748 44.1764ZM166.749 49.08C166.749 50.1022 166.478 50.69 166.106 51.0369L167.471 52.4991C168.379 51.6514 168.749 50.4472 168.749 49.08H166.749ZM166.081 51.0609C165.677 51.4653 165.044 51.7828 164.076 51.9316L164.381 53.9084C165.632 53.7159 166.705 53.2654 167.496 52.4751L166.081 51.0609ZM164.086 51.9302L146.294 54.4902L146.579 56.4698L164.371 53.9098L164.086 51.9302ZM153.541 40.848C151.199 40.848 149.191 41.6472 147.585 43.2529L149 44.6671C150.21 43.4568 151.7 42.848 153.541 42.848V40.848ZM147.596 43.2421C145.962 44.8273 145.109 47.0525 144.927 49.7815L146.922 49.9145C147.082 47.5235 147.807 45.8233 148.989 44.6779L147.596 43.2421ZM146.072 50.8371L160.28 48.7251L159.985 46.7469L145.777 48.8589L146.072 50.8371ZM161.127 47.6285C160.933 45.8388 160.225 44.2722 159.01 42.9606L157.543 44.3194C158.462 45.3118 158.99 46.4759 159.138 47.8435L161.127 47.6285ZM159.022 42.974C157.712 41.5066 155.824 40.848 153.541 40.848V42.848C155.439 42.848 156.707 43.3841 157.531 44.306L159.022 42.974ZM174.232 67L173.586 67.7634L173.865 68H174.232V67ZM172.888 65.208L171.983 65.6338L171.983 65.6338L172.888 65.208ZM172.952 60.28L172.067 59.8143L172.057 59.8329L172.048 59.8519L172.952 60.28ZM174.488 57.912L173.699 57.297L173.698 57.2981L174.488 57.912ZM192.408 34.936L193.196 35.551L194.456 33.936H192.408V34.936ZM173.784 34.936L172.909 35.4216L173.195 35.936H173.784V34.936ZM173.144 33.528L172.188 33.8221L172.198 33.8549L172.21 33.887L173.144 33.528ZM173.656 28.92L172.923 28.2395L172.909 28.2541L172.896 28.2692L173.656 28.92ZM200.472 28.024L201.116 27.2597L200.837 27.024H200.472V28.024ZM201.944 34.808L201.049 34.3608L201.039 34.3811L201.03 34.4019L201.944 34.808ZM200.536 37.112L201.324 37.7273L201.325 37.7259L200.536 37.112ZM182.552 60.152L181.763 59.5367L180.502 61.152H182.552V60.152ZM202.007 60.152L202.882 59.6664L202.596 59.152H202.007V60.152ZM202.648 61.56L201.714 61.919L201.714 61.919L202.648 61.56ZM202.136 66.168L201.403 65.4875L201.401 65.4897L202.136 66.168ZM174.877 66.2366C174.443 65.8691 174.079 65.3913 173.792 64.7822L171.983 65.6338C172.379 66.4754 172.911 67.1922 173.586 67.7634L174.877 66.2366ZM173.792 64.7822C173.521 64.205 173.376 63.5422 173.376 62.776H171.376C171.376 63.8018 171.572 64.7603 171.983 65.6338L173.792 64.7822ZM173.376 62.776C173.376 62.0783 173.531 61.392 173.855 60.7081L172.048 59.8519C171.604 60.7894 171.376 61.767 171.376 62.776H173.376ZM173.836 60.7457C174.234 59.9903 174.713 59.2503 175.277 58.5259L173.698 57.2981C173.067 58.1097 172.522 58.9484 172.067 59.8143L173.836 60.7457ZM175.276 58.527L193.196 35.551L191.619 34.321L173.699 57.297L175.276 58.527ZM192.408 33.936H173.784V35.936H192.408V33.936ZM174.658 34.4504C174.473 34.1185 174.279 33.6942 174.077 33.169L172.21 33.887C172.435 34.4711 172.667 34.9855 172.909 35.4216L174.658 34.4504ZM174.099 33.2339C173.964 32.7948 173.888 32.2574 173.888 31.608H171.888C171.888 32.4093 171.981 33.1518 172.188 33.8221L174.099 33.2339ZM173.888 31.608C173.888 30.533 174.121 29.9133 174.415 29.5708L172.896 28.2692C172.166 29.1213 171.888 30.2937 171.888 31.608H173.888ZM174.388 29.6004C174.716 29.2479 175.195 29.024 175.96 29.024V27.024C174.761 27.024 173.705 27.3975 172.923 28.2395L174.388 29.6004ZM175.96 29.024H200.472V27.024H175.96V29.024ZM199.827 28.7883C200.972 29.7549 201.52 30.9284 201.52 32.376H203.52C203.52 30.3249 202.701 28.5971 201.116 27.2597L199.827 28.7883ZM201.52 32.376C201.52 33.0731 201.364 33.7307 201.049 34.3608L202.838 35.2552C203.291 34.3493 203.52 33.3856 203.52 32.376H201.52ZM201.03 34.4019C200.726 35.0853 200.301 35.7842 199.746 36.4981L201.325 37.7259C201.964 36.9038 202.478 36.0667 202.857 35.2141L201.03 34.4019ZM199.747 36.4967L181.763 59.5367L183.34 60.7673L201.324 37.7273L199.747 36.4967ZM182.552 61.152H202.007V59.152H182.552V61.152ZM201.133 60.6376C201.318 60.9695 201.512 61.3938 201.714 61.919L203.581 61.201C203.356 60.6169 203.124 60.1025 202.882 59.6664L201.133 60.6376ZM201.714 61.919C201.875 62.3369 201.968 62.8512 201.968 63.48H203.968C203.968 62.6582 203.847 61.8924 203.581 61.201L201.714 61.919ZM201.968 63.48C201.968 64.5382 201.72 65.1455 201.403 65.4875L202.868 66.8485C203.66 65.9958 203.968 64.8112 203.968 63.48H201.968ZM201.401 65.4897C201.122 65.7913 200.692 66 199.96 66V68C201.104 68 202.125 67.654 202.87 66.8463L201.401 65.4897ZM199.96 66H174.232V68H199.96V66ZM237.206 58.552L236.272 58.1943L236.268 58.2054L237.206 58.552ZM234.07 63.608L233.352 62.9119L233.352 62.9119L234.07 63.608ZM229.142 66.872L229.495 67.8075L229.504 67.8041L229.513 67.8005L229.142 66.872ZM216.214 66.872L215.842 67.8005L215.851 67.8041L215.86 67.8075L216.214 66.872ZM211.286 63.672L210.568 64.3681L210.573 64.3737L210.578 64.3791L211.286 63.672ZM208.086 58.616L207.145 58.9561L207.15 58.9683L207.154 58.9804L208.086 58.616ZM208.086 45.176L207.152 44.8183L207.148 44.8293L208.086 45.176ZM216.278 36.92L216.631 37.8555L216.64 37.8521L216.649 37.8485L216.278 36.92ZM229.078 36.92L228.706 37.8485L228.715 37.8521L228.724 37.8555L229.078 36.92ZM234.006 40.12L233.288 40.8161L233.293 40.8217L233.298 40.8271L234.006 40.12ZM237.206 45.24L236.265 45.5801L236.27 45.5923L236.274 45.6044L237.206 45.24ZM217.238 44.728L218.02 45.3503L218.028 45.3406L217.238 44.728ZM217.174 59L216.381 59.6097L216.386 59.616L216.391 59.6222L217.174 59ZM228.118 59L227.327 58.3874L227.325 58.3903L228.118 59ZM228.118 44.728L227.327 45.3406L227.335 45.3502L228.118 44.728ZM237.358 51.832C237.358 54.2028 236.99 56.3192 236.272 58.1944L238.139 58.9096C238.957 56.7741 239.358 54.4105 239.358 51.832H237.358ZM236.268 58.2054C235.587 60.0463 234.614 61.6103 233.352 62.9119L234.787 64.3041C236.256 62.7897 237.373 60.983 238.143 58.8987L236.268 58.2054ZM233.352 62.9119C232.089 64.2135 230.567 65.2248 228.77 65.9435L229.513 67.8005C231.556 66.9832 233.319 65.8185 234.787 64.3041L233.352 62.9119ZM228.788 65.9365C226.998 66.6128 224.966 66.96 222.678 66.96V68.96C225.168 68.96 227.445 68.5819 229.495 67.8075L228.788 65.9365ZM222.678 66.96C220.389 66.96 218.357 66.6128 216.567 65.9365L215.86 67.8075C217.91 68.5819 220.187 68.96 222.678 68.96V66.96ZM216.585 65.9435C214.782 65.2222 213.256 64.2278 211.993 62.9649L210.578 64.3791C212.046 65.8469 213.805 66.9858 215.842 67.8005L216.585 65.9435ZM212.003 62.9759C210.737 61.6701 209.74 60.0999 209.017 58.2516L207.154 58.9804C207.967 61.0574 209.103 62.8579 210.568 64.3681L212.003 62.9759ZM209.026 58.2759C208.346 56.3973 207.998 54.2538 207.998 51.832H205.998C205.998 54.4449 206.374 56.824 207.145 58.9561L209.026 58.2759ZM207.998 51.832C207.998 49.4545 208.346 47.3561 209.023 45.5226L207.148 44.8293C206.374 46.9212 205.998 49.2601 205.998 51.832H207.998ZM209.019 45.5336C209.743 43.6447 210.737 42.0826 211.993 40.8271L210.578 39.4129C209.103 40.8881 207.964 42.6967 207.152 44.8184L209.019 45.5336ZM211.993 40.8271C213.297 39.5226 214.839 38.5322 216.631 37.8555L215.924 35.9845C213.876 36.7584 212.09 37.9014 210.578 39.4129L211.993 40.8271ZM216.649 37.8485C218.436 37.1337 220.441 36.768 222.678 36.768V34.768C220.221 34.768 217.959 35.1703 215.906 35.9915L216.649 37.8485ZM222.678 36.768C224.914 36.768 226.919 37.1337 228.706 37.8485L229.449 35.9915C227.396 35.1703 225.134 34.768 222.678 34.768V36.768ZM228.724 37.8555C230.513 38.5313 232.029 39.5187 233.288 40.8161L234.723 39.4239C233.251 37.9053 231.482 36.7594 229.431 35.9845L228.724 37.8555ZM233.298 40.8271C234.595 42.1241 235.586 43.7028 236.265 45.5801L238.146 44.8999C237.374 42.7665 236.232 40.9319 234.713 39.4129L233.298 40.8271ZM236.274 45.6044C236.99 47.4345 237.358 49.5057 237.358 51.832H239.358C239.358 49.2943 238.957 46.9708 238.137 44.8756L236.274 45.6044ZM222.678 41.168C220.088 41.168 217.973 42.146 216.447 44.1154L218.028 45.3406C219.147 43.8967 220.659 43.168 222.678 43.168V41.168ZM216.455 44.1058C214.941 46.0104 214.254 48.6317 214.254 51.832H216.254C216.254 48.8883 216.889 46.7736 218.02 45.3502L216.455 44.1058ZM214.254 51.832C214.254 55.0651 214.915 57.7043 216.381 59.6097L217.966 58.3903C216.872 56.9677 216.254 54.8282 216.254 51.832H214.254ZM216.391 59.6222C217.924 61.5519 220.062 62.496 222.678 62.496V60.496C220.6 60.496 219.068 59.7761 217.956 58.3778L216.391 59.6222ZM222.678 62.496C225.293 62.496 227.417 61.5512 228.91 59.6097L227.325 58.3903C226.258 59.7768 224.756 60.496 222.678 60.496V62.496ZM228.908 59.6126C230.413 57.67 231.102 55.0345 231.102 51.832H229.102C229.102 54.7735 228.467 56.9167 227.327 58.3874L228.908 59.6126ZM231.102 51.832C231.102 48.6317 230.414 46.0104 228.9 44.1058L227.335 45.3502C228.466 46.7736 229.102 48.8883 229.102 51.832H231.102ZM228.908 44.1154C227.382 42.146 225.267 41.168 222.678 41.168V43.168C224.696 43.168 226.208 43.8967 227.327 45.3406L228.908 44.1154ZM263.466 43.448L262.825 44.2162L262.833 44.2226L262.841 44.2289L263.466 43.448ZM255.786 42.616L255.516 41.653L255.506 41.656L255.786 42.616ZM253.098 43.768L252.576 42.9147L252.098 43.2072V43.768H253.098ZM253.098 66.936L253.314 67.9122L254.098 67.7382V66.936H253.098ZM251.562 67.256L251.758 68.2366L251.562 67.256ZM246.058 66.616L246.665 65.8216L246.665 65.8216L246.058 66.616ZM245.61 40.632L244.777 40.0773L244.777 40.0773L245.61 40.632ZM247.594 38.776L248.148 39.608L248.155 39.6037L248.161 39.5992L247.594 38.776ZM252.522 36.664L252.783 37.6292L252.792 37.6267L252.802 37.624L252.522 36.664ZM269.482 38.712L268.847 39.4847L268.854 39.4909L268.862 39.4969L269.482 38.712ZM273.13 66.936L273.372 67.9061L274.13 67.7168V66.936H273.13ZM271.594 67.256L271.409 66.2731L271.397 66.2754L271.594 67.256ZM266.09 66.616L265.459 67.3921L265.47 67.4014L265.482 67.4104L266.09 66.616ZM266.066 47.48C266.066 45.453 265.469 43.7704 264.09 42.6671L262.841 44.2289C263.595 44.8323 264.066 45.8377 264.066 47.48H266.066ZM264.106 42.6798C262.848 41.632 261.187 41.168 259.242 41.168V43.168C260.88 43.168 262.035 43.5573 262.825 44.2162L264.106 42.6798ZM259.242 41.168C257.924 41.168 256.68 41.3271 255.516 41.653L256.055 43.579C257.024 43.3076 258.085 43.168 259.242 43.168V41.168ZM255.506 41.656C254.412 41.975 253.432 42.3917 252.576 42.9147L253.619 44.6213C254.299 44.2056 255.111 43.8543 256.066 43.576L255.506 41.656ZM252.098 43.768V66.936H254.098V43.768H252.098ZM252.881 65.9598C252.506 66.0429 252.002 66.148 251.365 66.2754L251.758 68.2366C252.401 68.108 252.921 67.9997 253.314 67.9122L252.881 65.9598ZM251.365 66.2754C250.803 66.3878 250.145 66.448 249.385 66.448V68.448C250.247 68.448 251.04 68.3802 251.758 68.2366L251.365 66.2754ZM249.385 66.448C247.983 66.448 247.136 66.1817 246.665 65.8216L245.45 67.4104C246.43 68.1596 247.801 68.448 249.385 68.448V66.448ZM246.665 65.8216C246.298 65.5408 245.97 64.9409 245.97 63.672H243.97C243.97 65.2191 244.367 66.5819 245.45 67.4104L246.665 65.8216ZM245.97 63.672V43.128H243.97V63.672H245.97ZM245.97 43.128C245.97 42.2373 246.155 41.6161 246.442 41.1867L244.777 40.0773C244.21 40.9279 243.97 41.9707 243.97 43.128H245.97ZM246.442 41.1867C246.772 40.6911 247.321 40.1594 248.148 39.608L247.039 37.9439C246.074 38.5873 245.3 39.2929 244.777 40.0773L246.442 41.1867ZM248.161 39.5992C249.275 38.8308 250.803 38.1655 252.783 37.6292L252.26 35.6988C250.144 36.2719 248.386 37.0146 247.026 37.9528L248.161 39.5992ZM252.802 37.624C254.745 37.057 256.911 36.768 259.306 36.768V34.768C256.751 34.768 254.394 35.0763 252.242 35.704L252.802 37.624ZM259.306 36.768C263.564 36.768 266.698 37.72 268.847 39.4847L270.116 37.9393C267.486 35.7786 263.836 34.768 259.306 34.768V36.768ZM268.862 39.4969C271.002 41.1867 272.13 43.7034 272.13 47.224H274.13C274.13 43.2352 272.825 40.0773 270.101 37.9271L268.862 39.4969ZM272.13 47.224V66.936H274.13V47.224H272.13ZM272.887 65.9659C272.575 66.0437 272.087 66.146 271.409 66.2731L271.778 68.2389C272.465 68.11 273.001 67.9989 273.372 67.9061L272.887 65.9659ZM271.397 66.2754C270.832 66.3885 270.195 66.448 269.482 66.448V68.448C270.304 68.448 271.075 68.3795 271.79 68.2366L271.397 66.2754ZM269.482 66.448C268.029 66.448 267.164 66.1789 266.697 65.8216L265.482 67.4104C266.466 68.1624 267.862 68.448 269.482 68.448V66.448ZM266.72 65.8399C266.382 65.5652 266.066 64.9588 266.066 63.672H264.066C264.066 65.2012 264.432 66.5575 265.459 67.3921L266.72 65.8399ZM266.066 63.672V47.48H264.066V63.672H266.066ZM287.874 55.48L287.732 54.4902L286.61 54.6516L286.91 55.7447L287.874 55.48ZM302.146 60.92L302.47 61.8659L302.478 61.8633L302.486 61.8606L302.146 60.92ZM305.858 59.192L306.354 58.3238L305.83 58.0244L305.321 58.3483L305.858 59.192ZM307.33 60.6L306.489 61.1408L306.489 61.1408L307.33 60.6ZM307.01 64.824L306.257 64.1655L306.254 64.1691L307.01 64.824ZM304.642 66.488L304.225 65.5789L304.218 65.5823L304.211 65.5859L304.642 66.488ZM301.122 67.576L301.306 68.5589L301.122 67.576ZM289.794 66.936L289.478 67.8847L289.484 67.8866L289.794 66.936ZM284.482 63.864L283.786 64.5816L283.796 64.592L283.807 64.602L284.482 63.864ZM281.026 58.68L280.096 59.048L280.099 59.0564L280.103 59.0646L281.026 58.68ZM281.026 44.6L281.95 44.9818L281.95 44.9818L281.026 44.6ZM284.29 39.672L283.605 38.9432L283.6 38.9484L283.594 38.9538L284.29 39.672ZM289.154 36.728L289.483 37.6722L289.483 37.6722L289.154 36.728ZM300.738 36.792L300.374 37.7236L300.384 37.7275L300.394 37.7311L300.738 36.792ZM305.218 39.544L304.523 40.2634L304.53 40.2697L304.537 40.2759L305.218 39.544ZM308.098 43.768L307.173 44.1476L307.179 44.1621L307.185 44.1764L308.098 43.768ZM308.226 51.768L307.544 51.0369L307.531 51.0487L307.519 51.0609L308.226 51.768ZM305.666 52.92L305.808 53.9099L305.818 53.9084L305.666 52.92ZM289.73 43.96L290.426 44.6779L290.432 44.6725L290.437 44.6671L289.73 43.96ZM287.362 49.848L286.364 49.7815L286.282 51.0196L287.509 50.8371L287.362 49.848ZM301.57 47.736L301.717 48.7251L302.667 48.5838L302.564 47.6285L301.57 47.736ZM299.714 43.64L298.968 44.306L298.974 44.3128L298.98 44.3194L299.714 43.64ZM286.91 55.7447C287.561 58.1175 288.803 59.933 290.684 61.0715L291.72 59.3605C290.358 58.5363 289.382 57.1945 288.838 55.2153L286.91 55.7447ZM290.684 61.0715C292.498 62.1691 294.693 62.688 297.218 62.688V60.688C294.964 60.688 293.149 60.2256 291.72 59.3605L290.684 61.0715ZM297.218 62.688C299.106 62.688 300.86 62.4182 302.47 61.8659L301.822 59.9741C300.446 60.4458 298.914 60.688 297.218 60.688V62.688ZM302.486 61.8606C304.062 61.2914 305.373 60.6861 306.395 60.0357L305.321 58.3483C304.466 58.8926 303.302 59.4393 301.806 59.9794L302.486 61.8606ZM305.362 60.0602C305.815 60.3191 306.189 60.6742 306.489 61.1408L308.171 60.0592C307.703 59.3311 307.096 58.7475 306.354 58.3238L305.362 60.0602ZM306.489 61.1408C306.774 61.5836 306.906 62.037 306.906 62.52H308.906C308.906 61.6376 308.654 60.811 308.171 60.0592L306.489 61.1408ZM306.906 62.52C306.906 63.115 306.706 63.6526 306.257 64.1655L307.763 65.4825C308.508 64.63 308.906 63.6317 308.906 62.52H306.906ZM306.254 64.1691C305.819 64.6717 305.16 65.1504 304.225 65.5789L305.059 67.3971C306.172 66.8869 307.092 66.2563 307.766 65.4789L306.254 64.1691ZM304.211 65.5859C303.326 66.009 302.24 66.349 300.938 66.5931L301.306 68.5589C302.735 68.291 303.995 67.9057 305.073 67.3901L304.211 65.5859ZM300.938 66.5931C299.641 66.8363 298.231 66.96 296.706 66.96V68.96C298.338 68.96 299.873 68.8277 301.306 68.5589L300.938 66.5931ZM296.706 66.96C294.279 66.96 292.082 66.631 290.104 65.9854L289.484 67.8866C291.688 68.6063 294.098 68.96 296.706 68.96V66.96ZM290.11 65.9873C288.186 65.346 286.54 64.3905 285.157 63.126L283.807 64.602C285.411 66.0682 287.306 67.1607 289.478 67.8847L290.11 65.9873ZM285.178 63.1464C283.834 61.8417 282.755 60.2305 281.949 58.2954L280.103 59.0646C281.003 61.2255 282.228 63.0703 283.786 64.5816L285.178 63.1464ZM281.956 58.312C281.201 56.4055 280.81 54.1458 280.81 51.512H278.81C278.81 54.3395 279.229 56.8585 280.096 59.048L281.956 58.312ZM280.81 51.512C280.81 48.9665 281.2 46.7976 281.95 44.9818L280.102 44.2182C279.23 46.3277 278.81 48.7668 278.81 51.512H280.81ZM281.95 44.9818C282.715 43.1309 283.73 41.607 284.986 40.3902L283.594 38.9538C282.12 40.3823 280.959 42.1438 280.102 44.2182L281.95 44.9818ZM284.975 40.4008C286.28 39.1746 287.78 38.2664 289.483 37.6722L288.825 35.7838C286.859 36.4696 285.116 37.524 283.605 38.9432L284.975 40.4008ZM289.483 37.6722C291.207 37.0711 293.036 36.768 294.978 36.768V34.768C292.824 34.768 290.771 35.1049 288.825 35.7838L289.483 37.6722ZM294.978 36.768C296.958 36.768 298.753 37.091 300.374 37.7236L301.102 35.8604C299.224 35.1277 297.179 34.768 294.978 34.768V36.768ZM300.394 37.7311C302.024 38.3272 303.395 39.1735 304.523 40.2634L305.913 38.8246C304.567 37.5252 302.951 36.5368 301.082 35.8529L300.394 37.7311ZM304.537 40.2759C305.661 41.3232 306.541 42.6085 307.173 44.1476L309.023 43.3884C308.289 41.5995 307.249 40.0688 305.899 38.8121L304.537 40.2759ZM307.185 44.1764C307.849 45.6591 308.186 47.2892 308.186 49.08H310.186C310.186 47.0308 309.798 45.1196 309.011 43.3596L307.185 44.1764ZM308.186 49.08C308.186 50.1022 307.915 50.69 307.544 51.0369L308.908 52.4991C309.817 51.6514 310.186 50.4472 310.186 49.08H308.186ZM307.519 51.0609C307.115 51.4653 306.482 51.7828 305.514 51.9316L305.818 53.9084C307.069 53.7159 308.143 53.2654 308.933 52.4751L307.519 51.0609ZM305.524 51.9302L287.732 54.4902L288.016 56.4698L305.808 53.9098L305.524 51.9302ZM294.978 40.848C292.637 40.848 290.629 41.6472 289.023 43.2529L290.437 44.6671C291.647 43.4568 293.138 42.848 294.978 42.848V40.848ZM289.034 43.2421C287.399 44.8273 286.546 47.0525 286.364 49.7815L288.36 49.9145C288.519 47.5235 289.245 45.8233 290.426 44.6779L289.034 43.2421ZM287.509 50.8371L301.717 48.7251L301.423 46.7469L287.215 48.8589L287.509 50.8371ZM302.564 47.6285C302.371 45.8388 301.662 44.2722 300.448 42.9606L298.98 44.3194C299.899 45.3118 300.428 46.4759 300.576 47.8435L302.564 47.6285ZM300.46 42.974C299.15 41.5066 297.261 40.848 294.978 40.848V42.848C296.876 42.848 298.145 43.3841 298.968 44.306L300.46 42.974Z" fill="#016630" mask="url(#path-1-outside-1_74_24)"/>
<path d="M39.3 31.2044L31.732 38.7724C31.114 39.3912 30.7669 40.2299 30.7669 41.1044C30.7669 41.9789 31.114 42.8176 31.732 43.4364L33.25 44.9544M33.25 44.9544L34.768 46.4724C35.3868 47.0904 36.2255 47.4375 37.1 47.4375C37.9745 47.4375 38.8132 47.0904 39.432 46.4724L47 38.9044M33.25 44.9544L7.40012 70.8044M42.6 35.5978L37.1 41.0978M16.1781 44.378C13.5491 47.0048 9.94551 47.6626 6.66092 44.378C3.37633 41.0934 1.65374 35.1116 4.28053 32.4826C6.90952 29.858 12.8913 31.5784 16.1781 34.863C19.4649 38.1476 18.8071 41.749 16.1781 44.378ZM16.1781 44.378L42.6 70.8022M18.8511 29.8734C20.8491 29.293 22.9194 28.9989 25.0001 29C27.5344 29 29.9676 29.429 32.2336 30.2166M3.10794 48.8C3.03607 49.5245 3.00014 50.2579 3.00014 51C3.00014 55.4704 4.33333 59.6284 6.62352 63.1M15.7007 70.943C18.5255 72.263 21.6759 73 25.0001 73C28.2415 73.0019 31.4433 72.2874 34.3764 70.9078M43.3744 63.1C45.7456 59.5106 47.0067 55.302 47 51C46.997 49.7269 46.8922 48.4832 46.6854 47.2688" stroke="#016630" stroke-width="5" stroke-linecap="round" stroke-linejoin="round"/>
</svg>
